<?xml version="1.0" encoding="utf-8"?>
<!-- Generator: Adobe Illustrator 15.1.0, SVG Export Plug-In . SVG Version: 6.00 Build 0)  -->
<svg version="1.2" baseProfile="tiny" id="Layer_1" xmlns="http://www.w3.org/2000/svg" xmlns:xlink="http://www.w3.org/1999/xlink"
	 x="0px" y="0px" width="1248.121px" height="942.064px" viewBox="0 0 1248.121 942.064" xml:space="preserve">
<g>
	<path fill="#FF6700" d="M774.154,469.599c-21.068,17.259-44.5,31.306-69.717,41.509c-13.765-1.47-27.316-3.759-40.584-6.855
		c-17.777-4.08-35.078-9.529-51.809-16.268c12.405-11.396,24.063-23.662,34.95-36.709c23.438,8.018,47.914,13.545,73.1,16.387
		c13.92,1.58,28.05,2.346,42.39,2.229C766.395,469.854,770.277,469.747,774.154,469.599"/>
	<path fill="#FF6700" d="M856.168,361.463c-9.92,22.341-22.4,43.116-37.025,61.905c-18.565,3.172-37.578,4.895-56.934,5.037
		c-1.209,0.016-2.453,0.022-3.658-0.008c-29.672-0.046-58.535-3.841-86.201-10.956c7.828-11.641,15.097-23.717,21.72-36.252
		c13.903,1.588,28.065,2.332,42.407,2.225c18.556-0.139,36.797-1.738,54.638-4.705C813.52,375.028,835.281,369.235,856.168,361.463"
		/>
	<path fill="#FF6700" d="M883.111,242.839c-0.779,26.205-4.709,51.569-11.426,75.617c-20.255,8.695-41.384,15.473-63.203,20.213
		c-23.343,5.144-47.506,7.882-72.238,8.074c-8.602,0.06-17.096-0.181-25.545-0.746c6.299-15.127,11.762-30.822,16.264-46.882
		c33.777-3.642,66.258-12.13,96.758-24.851C844.479,265.707,864.352,255.163,883.111,242.839"/>
	<path fill="#FF6700" d="M888.227,206.611c-2.666-32.881-10.305-64.221-22.096-93.081c-12.939,16.574-27.111,32.003-42.352,46.102
		c-22.98,21.37-48.431,39.725-75.803,54.581c-14.556,7.963-29.656,14.851-45.236,20.718c-6.896,2.577-13.908,4.96-20.988,7.094
		c-0.723,11.029-2.156,21.885-4.211,32.498c-1.662,8.795-3.762,17.396-6.307,25.846c-3.797,12.677-8.509,24.88-14.064,36.592
		c-5.225,11.063-11.268,21.719-17.979,31.726c-6.404,9.62-13.453,18.737-21.041,27.261c-8.711,9.773-18.134,18.74-28.178,26.848
		c-12.085,9.775-25.072,18.244-38.841,25.326c0.457,2.035,0.969,4.051,1.611,6.025c0.355,1.151,0.764,2.284,1.16,3.428
		c0.178,0.393,0.428,0.977,0.766,1.76c2.972,6.279,6.325,12.326,10.094,18.088c1.408,2.162,2.845,4.299,4.309,6.414
		c6.21-3.035,12.277-6.346,18.169-9.963c14.754-9.061,28.521-19.832,40.981-32.064c9.781-9.532,18.826-19.991,26.91-31.248
		c7.564-10.422,14.344-21.457,20.266-33.121c5.64-10.964,10.464-22.378,14.482-34.27c4.596-13.518,8.084-27.602,10.449-42.066
		c1.434-8.954,2.436-18.068,3.004-27.285c12.508-0.848,24.824-2.316,36.955-4.419v-0.043c32.227-5.61,63.08-15.612,92-29.465
		c19.592-9.414,38.317-20.54,55.946-33.245v-0.035L888.227,206.611L888.227,206.611z"/>
	<path fill="#FF6700" d="M675.889,528.048c0,0-156.512,31.498-138.351-138.068c13.024-121.639-86.858-184.992-147.275-187.234
		c2.708,0.188,42.354,5.499,39.476,155.283C426.755,513.083,549.078,607.522,675.889,528.048 M435.31,235.409
		c-3.209-1.639-4.574-5.77-3.052-9.225c1.521-3.452,5.359-4.923,8.563-3.28c3.208,1.638,4.573,5.765,3.053,9.221
		C442.355,235.575,438.521,237.05,435.31,235.409"/>
	<path fill="#FFFFFF" d="M1542.895,1526.356c0.015,0.022,0.019,0.055,0.019,0.077c-0.076-0.047-0.148-0.096-0.221-0.141
		C1542.754,1526.312,1542.828,1526.333,1542.895,1526.356"/>
	<path fill="#FFFFFF" d="M1605.631,1526.356c0.064-0.027,0.137-0.048,0.215-0.063c-0.08,0.047-0.151,0.098-0.227,0.141
		C1605.623,1526.411,1605.623,1526.38,1605.631,1526.356"/>
	<path d="M2263.049,1526.356c0.072-0.027,0.139-0.048,0.215-0.063c-0.08,0.047-0.153,0.098-0.229,0.141
		C2263.043,1526.411,2263.047,1526.38,2263.049,1526.356"/>
</g>
<rect x="543.56" y="578.032" fill="none" width="229.148" height="75"/>
</svg>
