<?xml version="1.0" encoding="iso-8859-1"?>
<!-- Generator: Adobe Illustrator 16.0.0, SVG Export Plug-In . SVG Version: 6.00 Build 0)  -->
<!DOCTYPE svg PUBLIC "-//W3C//DTD SVG 1.1//EN" "http://www.w3.org/Graphics/SVG/1.1/DTD/svg11.dtd">
<svg version="1.1" id="Capa_1" xmlns="http://www.w3.org/2000/svg" xmlns:xlink="http://www.w3.org/1999/xlink" x="0px" y="0px"
	 width="459.387px" height="459.387px" viewBox="0 0 459.387 459.387" style="enable-background:new 0 0 459.387 459.387;"
	 xml:space="preserve">
<g>
	<g>
		<path d="M131.034,31.087V416.59c0,1.635,1.328,2.965,2.963,2.965h191.404c1.635,0,2.96-1.33,2.96-2.965V31.087
			c0-1.638-1.325-2.963-2.96-2.963H133.997C132.361,28.124,131.034,29.45,131.034,31.087z M136.959,34.048h185.476v379.581H136.959
			V34.048z"/>
		<path d="M198.106,20.769h48.489c1.636,0,2.961-1.328,2.961-2.963c0-1.635-1.325-2.963-2.961-2.963h-48.489
			c-1.635,0-2.963,1.328-2.963,2.963C195.143,19.441,196.471,20.769,198.106,20.769z"/>
		<path d="M256.375,16.582c1.071,0,1.945,0.871,1.945,1.942c0,1.074-0.874,1.945-1.945,1.945s-1.944-0.871-1.944-1.945
			C254.431,17.453,255.304,16.582,256.375,16.582z"/>
		<circle cx="262.301" cy="18.526" r="1.944"/>
		<circle cx="312.482" cy="18.526" r="4.922"/>
		<path d="M242.837,425.685h-28.332c-3.436,0-6.233,2.798-6.233,6.23v4.905c0,3.438,2.798,6.235,6.233,6.235h28.332
			c3.433,0,6.231-2.787,6.231-6.235v-4.905C249.069,428.482,246.27,425.685,242.837,425.685z M243.142,436.815
			c0,0.167-0.132,0.305-0.305,0.305l-28.64-0.305l0.308-5.216l28.637,0.311V436.815z"/>
		<path d="M170.076,429.538H154.72c-0.482,0-0.863,0.386-0.863,0.863v7.933c0,0.462,0.381,0.857,0.863,0.857
			c0.472,0,0.853-0.386,0.853-0.857v-7.079h13.642v7.079c0,0.462,0.388,0.857,0.861,0.857c0.467,0,0.853-0.386,0.853-0.857v-7.933
			C170.929,429.924,170.542,429.538,170.076,429.538z"/>
		<path d="M165.944,433.504h-7.094c-0.475,0-0.853,0.396-0.853,0.863l0,0c0,0.3,0.18,0.519,0.411,0.671
			c0.132,0.086,0.267,0.183,0.442,0.183h7.094c0.173,0,0.307-0.097,0.442-0.183c0.239-0.152,0.419-0.371,0.419-0.671l0,0
			C166.805,433.9,166.419,433.504,165.944,433.504z"/>
		<path d="M300.575,429.711h-5.906l0.173-0.416l-3.011,1.27l3.011,1.274l-0.173-0.411h5.906c1.792,0,3.25,1.406,3.25,3.143
			c0,1.737-1.458,3.144-3.25,3.144h-5.789c-0.482,0-0.854,0.392-0.854,0.854c0,0.477,0.381,0.863,0.854,0.863h5.789
			c2.736,0,4.956-2.188,4.956-4.865C305.531,431.885,303.301,429.711,300.575,429.711z"/>
		<path d="M116.878,18.012v423.363c0,9.928,8.082,18.012,18.012,18.012h189.616c9.928,0,18.002-8.084,18.002-18.012V18.012
			c0-9.93-8.079-18.012-18.002-18.012H134.89C124.96,0,116.878,8.082,116.878,18.012z M332.637,18.012v423.363
			c0,4.484-3.651,8.135-8.131,8.135H134.89c-4.489,0-8.138-3.65-8.138-8.135V18.012c0-4.486,3.649-8.138,8.138-8.138h189.616
			C328.986,9.874,332.637,13.525,332.637,18.012z"/>
	</g>
</g>
<g>
</g>
<g>
</g>
<g>
</g>
<g>
</g>
<g>
</g>
<g>
</g>
<g>
</g>
<g>
</g>
<g>
</g>
<g>
</g>
<g>
</g>
<g>
</g>
<g>
</g>
<g>
</g>
<g>
</g>
</svg>
